<mxfile host="app.diagrams.net" agent="Mozilla/5.0 (Windows NT 10.0; Win64; x64) AppleWebKit/537.36 (KHTML, like Gecko) Chrome/134.0.0.0 Safari/537.36 Edg/134.0.0.0" version="26.1.1">
  <diagram name="第 1 页" id="mMvDS8Gl5DTP-dUkQIf1">
    <mxGraphModel dx="1426" dy="747" grid="1" gridSize="10" guides="1" tooltips="1" connect="1" arrows="1" fold="1" page="1" pageScale="1" pageWidth="827" pageHeight="1169" math="0" shadow="0">
      <root>
        <mxCell id="0" />
        <mxCell id="1" parent="0" />
        <mxCell id="QluS-aAjsIgC2w83DEUZ-6" value="Pool" style="swimlane;childLayout=stackLayout;resizeParent=1;resizeParentMax=0;startSize=20;horizontal=0;horizontalStack=1;fillColor=#f8cecc;strokeColor=#b85450;" parent="1" vertex="1">
          <mxGeometry x="10" width="770" height="770" as="geometry" />
        </mxCell>
        <mxCell id="QluS-aAjsIgC2w83DEUZ-7" value="SSO Server" style="swimlane;startSize=20;" parent="QluS-aAjsIgC2w83DEUZ-6" vertex="1">
          <mxGeometry x="20" width="200" height="770" as="geometry" />
        </mxCell>
        <mxCell id="nYzu0JgBFqqFMGA5fvKE-6" style="edgeStyle=orthogonalEdgeStyle;rounded=0;orthogonalLoop=1;jettySize=auto;html=1;entryX=0.5;entryY=0;entryDx=0;entryDy=0;" parent="QluS-aAjsIgC2w83DEUZ-7" source="QluS-aAjsIgC2w83DEUZ-13" target="nYzu0JgBFqqFMGA5fvKE-5" edge="1">
          <mxGeometry relative="1" as="geometry" />
        </mxCell>
        <mxCell id="nYzu0JgBFqqFMGA5fvKE-7" value="跳过" style="edgeLabel;html=1;align=center;verticalAlign=middle;resizable=0;points=[];" parent="nYzu0JgBFqqFMGA5fvKE-6" vertex="1" connectable="0">
          <mxGeometry x="-0.1778" relative="1" as="geometry">
            <mxPoint as="offset" />
          </mxGeometry>
        </mxCell>
        <mxCell id="QluS-aAjsIgC2w83DEUZ-13" value="静默登录" style="rounded=0;whiteSpace=wrap;html=1;fillColor=#d5e8d4;strokeColor=#82b366;" parent="QluS-aAjsIgC2w83DEUZ-7" vertex="1">
          <mxGeometry x="60" y="120" width="80" height="40" as="geometry" />
        </mxCell>
        <mxCell id="nYzu0JgBFqqFMGA5fvKE-5" value="写入用户信息" style="rounded=0;whiteSpace=wrap;html=1;fillColor=#d5e8d4;strokeColor=#82b366;" parent="QluS-aAjsIgC2w83DEUZ-7" vertex="1">
          <mxGeometry x="60" y="250" width="80" height="40" as="geometry" />
        </mxCell>
        <mxCell id="QluS-aAjsIgC2w83DEUZ-19" value="store" style="strokeWidth=2;html=1;shape=mxgraph.flowchart.database;whiteSpace=wrap;" parent="QluS-aAjsIgC2w83DEUZ-7" vertex="1">
          <mxGeometry x="31" y="280" width="60" height="50" as="geometry" />
        </mxCell>
        <mxCell id="rp30ESvSIAJqpPpiR4pG-10" value="connetc/refreshtoken" style="rounded=0;whiteSpace=wrap;html=1;fillColor=#d5e8d4;strokeColor=#82b366;" parent="QluS-aAjsIgC2w83DEUZ-7" vertex="1">
          <mxGeometry x="30" y="420" width="140" height="40" as="geometry" />
        </mxCell>
        <mxCell id="phz_HXH5ODK1cXeIsucl-7" style="edgeStyle=orthogonalEdgeStyle;rounded=0;orthogonalLoop=1;jettySize=auto;html=1;entryX=0;entryY=0.5;entryDx=0;entryDy=0;" edge="1" parent="QluS-aAjsIgC2w83DEUZ-7" source="rp30ESvSIAJqpPpiR4pG-34" target="QluS-aAjsIgC2w83DEUZ-13">
          <mxGeometry relative="1" as="geometry">
            <Array as="points">
              <mxPoint x="10" y="530" />
              <mxPoint x="10" y="140" />
            </Array>
          </mxGeometry>
        </mxCell>
        <mxCell id="phz_HXH5ODK1cXeIsucl-8" value="强制登录" style="edgeLabel;html=1;align=center;verticalAlign=middle;resizable=0;points=[];" vertex="1" connectable="0" parent="phz_HXH5ODK1cXeIsucl-7">
          <mxGeometry x="-0.1391" y="-1" relative="1" as="geometry">
            <mxPoint as="offset" />
          </mxGeometry>
        </mxCell>
        <mxCell id="rp30ESvSIAJqpPpiR4pG-34" value="connetc/token" style="rounded=0;whiteSpace=wrap;html=1;fillColor=#d5e8d4;strokeColor=#82b366;" parent="QluS-aAjsIgC2w83DEUZ-7" vertex="1">
          <mxGeometry x="30" y="510" width="140" height="40" as="geometry" />
        </mxCell>
        <mxCell id="QluS-aAjsIgC2w83DEUZ-15" style="edgeStyle=orthogonalEdgeStyle;rounded=0;orthogonalLoop=1;jettySize=auto;html=1;entryX=0.5;entryY=0;entryDx=0;entryDy=0;" parent="QluS-aAjsIgC2w83DEUZ-6" source="QluS-aAjsIgC2w83DEUZ-10" target="QluS-aAjsIgC2w83DEUZ-13" edge="1">
          <mxGeometry relative="1" as="geometry" />
        </mxCell>
        <mxCell id="QluS-aAjsIgC2w83DEUZ-16" value="跳转" style="edgeLabel;html=1;align=center;verticalAlign=middle;resizable=0;points=[];" parent="QluS-aAjsIgC2w83DEUZ-15" vertex="1" connectable="0">
          <mxGeometry x="-0.2" relative="1" as="geometry">
            <mxPoint as="offset" />
          </mxGeometry>
        </mxCell>
        <mxCell id="QluS-aAjsIgC2w83DEUZ-17" style="edgeStyle=orthogonalEdgeStyle;rounded=0;orthogonalLoop=1;jettySize=auto;html=1;entryX=0;entryY=0.5;entryDx=0;entryDy=0;exitX=1;exitY=0.5;exitDx=0;exitDy=0;" parent="QluS-aAjsIgC2w83DEUZ-6" source="nYzu0JgBFqqFMGA5fvKE-5" target="QluS-aAjsIgC2w83DEUZ-12" edge="1">
          <mxGeometry relative="1" as="geometry" />
        </mxCell>
        <mxCell id="QluS-aAjsIgC2w83DEUZ-18" value="跳转" style="edgeLabel;html=1;align=center;verticalAlign=middle;resizable=0;points=[];" parent="QluS-aAjsIgC2w83DEUZ-17" vertex="1" connectable="0">
          <mxGeometry x="-0.12" y="-2" relative="1" as="geometry">
            <mxPoint as="offset" />
          </mxGeometry>
        </mxCell>
        <mxCell id="rp30ESvSIAJqpPpiR4pG-9" style="edgeStyle=orthogonalEdgeStyle;rounded=0;orthogonalLoop=1;jettySize=auto;html=1;entryX=0.5;entryY=1;entryDx=0;entryDy=0;exitX=1;exitY=0.5;exitDx=0;exitDy=0;" parent="QluS-aAjsIgC2w83DEUZ-6" source="rp30ESvSIAJqpPpiR4pG-10" target="QluS-aAjsIgC2w83DEUZ-30" edge="1">
          <mxGeometry relative="1" as="geometry" />
        </mxCell>
        <mxCell id="rp30ESvSIAJqpPpiR4pG-22" style="edgeStyle=orthogonalEdgeStyle;rounded=0;orthogonalLoop=1;jettySize=auto;html=1;entryX=0.5;entryY=0;entryDx=0;entryDy=0;" parent="QluS-aAjsIgC2w83DEUZ-6" source="rp30ESvSIAJqpPpiR4pG-5" target="rp30ESvSIAJqpPpiR4pG-10" edge="1">
          <mxGeometry relative="1" as="geometry" />
        </mxCell>
        <mxCell id="rp30ESvSIAJqpPpiR4pG-23" value="刷新Token" style="edgeLabel;html=1;align=center;verticalAlign=middle;resizable=0;points=[];" parent="rp30ESvSIAJqpPpiR4pG-22" vertex="1" connectable="0">
          <mxGeometry x="-0.2457" y="-3" relative="1" as="geometry">
            <mxPoint x="-9" y="3" as="offset" />
          </mxGeometry>
        </mxCell>
        <mxCell id="rp30ESvSIAJqpPpiR4pG-30" style="edgeStyle=orthogonalEdgeStyle;rounded=0;orthogonalLoop=1;jettySize=auto;html=1;entryX=0.5;entryY=1;entryDx=0;entryDy=0;" parent="QluS-aAjsIgC2w83DEUZ-6" source="rp30ESvSIAJqpPpiR4pG-27" target="QluS-aAjsIgC2w83DEUZ-61" edge="1">
          <mxGeometry relative="1" as="geometry">
            <Array as="points">
              <mxPoint x="705" y="585" />
            </Array>
          </mxGeometry>
        </mxCell>
        <mxCell id="rp30ESvSIAJqpPpiR4pG-31" value="否" style="edgeLabel;html=1;align=center;verticalAlign=middle;resizable=0;points=[];" parent="rp30ESvSIAJqpPpiR4pG-30" vertex="1" connectable="0">
          <mxGeometry x="-0.3379" y="-2" relative="1" as="geometry">
            <mxPoint as="offset" />
          </mxGeometry>
        </mxCell>
        <mxCell id="rp30ESvSIAJqpPpiR4pG-35" style="edgeStyle=orthogonalEdgeStyle;rounded=0;orthogonalLoop=1;jettySize=auto;html=1;entryX=0.5;entryY=0;entryDx=0;entryDy=0;" parent="QluS-aAjsIgC2w83DEUZ-6" source="rp30ESvSIAJqpPpiR4pG-24" target="QluS-aAjsIgC2w83DEUZ-61" edge="1">
          <mxGeometry relative="1" as="geometry" />
        </mxCell>
        <mxCell id="rp30ESvSIAJqpPpiR4pG-40" value="否" style="edgeLabel;html=1;align=center;verticalAlign=middle;resizable=0;points=[];" parent="rp30ESvSIAJqpPpiR4pG-35" vertex="1" connectable="0">
          <mxGeometry x="-0.4749" relative="1" as="geometry">
            <mxPoint as="offset" />
          </mxGeometry>
        </mxCell>
        <mxCell id="rp30ESvSIAJqpPpiR4pG-41" style="edgeStyle=orthogonalEdgeStyle;rounded=0;orthogonalLoop=1;jettySize=auto;html=1;entryX=1;entryY=0.5;entryDx=0;entryDy=0;exitX=0.5;exitY=1;exitDx=0;exitDy=0;" parent="QluS-aAjsIgC2w83DEUZ-6" source="rp30ESvSIAJqpPpiR4pG-20" target="rp30ESvSIAJqpPpiR4pG-34" edge="1">
          <mxGeometry relative="1" as="geometry">
            <Array as="points">
              <mxPoint x="514" y="490" />
              <mxPoint x="210" y="490" />
              <mxPoint x="210" y="530" />
            </Array>
          </mxGeometry>
        </mxCell>
        <mxCell id="rp30ESvSIAJqpPpiR4pG-49" value="请求Token" style="edgeLabel;html=1;align=center;verticalAlign=middle;resizable=0;points=[];" parent="rp30ESvSIAJqpPpiR4pG-41" vertex="1" connectable="0">
          <mxGeometry x="0.3527" relative="1" as="geometry">
            <mxPoint x="17" as="offset" />
          </mxGeometry>
        </mxCell>
        <mxCell id="rp30ESvSIAJqpPpiR4pG-42" style="edgeStyle=orthogonalEdgeStyle;rounded=0;orthogonalLoop=1;jettySize=auto;html=1;exitX=0.5;exitY=0;exitDx=0;exitDy=0;entryX=0.5;entryY=1;entryDx=0;entryDy=0;" parent="QluS-aAjsIgC2w83DEUZ-6" source="rp30ESvSIAJqpPpiR4pG-34" target="QluS-aAjsIgC2w83DEUZ-30" edge="1">
          <mxGeometry relative="1" as="geometry">
            <Array as="points">
              <mxPoint x="120" y="470" />
              <mxPoint x="394" y="470" />
            </Array>
          </mxGeometry>
        </mxCell>
        <mxCell id="rp30ESvSIAJqpPpiR4pG-43" style="edgeStyle=orthogonalEdgeStyle;rounded=0;orthogonalLoop=1;jettySize=auto;html=1;" parent="QluS-aAjsIgC2w83DEUZ-6" source="QluS-aAjsIgC2w83DEUZ-30" target="KIUjc3lk86y1q8A7Fn4e-26" edge="1">
          <mxGeometry relative="1" as="geometry" />
        </mxCell>
        <mxCell id="rp30ESvSIAJqpPpiR4pG-46" value="监听回调" style="edgeLabel;html=1;align=center;verticalAlign=middle;resizable=0;points=[];" parent="rp30ESvSIAJqpPpiR4pG-43" vertex="1" connectable="0">
          <mxGeometry x="-0.2036" relative="1" as="geometry">
            <mxPoint x="20" as="offset" />
          </mxGeometry>
        </mxCell>
        <mxCell id="QluS-aAjsIgC2w83DEUZ-8" value="MCP" style="swimlane;startSize=20;" parent="QluS-aAjsIgC2w83DEUZ-6" vertex="1">
          <mxGeometry x="220" width="400" height="770" as="geometry" />
        </mxCell>
        <mxCell id="QluS-aAjsIgC2w83DEUZ-10" value="登录页" style="rounded=0;whiteSpace=wrap;html=1;fillColor=#d5e8d4;strokeColor=#82b366;" parent="QluS-aAjsIgC2w83DEUZ-8" vertex="1">
          <mxGeometry x="128" y="50" width="90" height="30" as="geometry" />
        </mxCell>
        <mxCell id="QluS-aAjsIgC2w83DEUZ-31" style="edgeStyle=orthogonalEdgeStyle;rounded=0;orthogonalLoop=1;jettySize=auto;html=1;entryX=0.5;entryY=1;entryDx=0;entryDy=0;" parent="QluS-aAjsIgC2w83DEUZ-8" source="QluS-aAjsIgC2w83DEUZ-12" target="nYzu0JgBFqqFMGA5fvKE-3" edge="1">
          <mxGeometry relative="1" as="geometry" />
        </mxCell>
        <mxCell id="QluS-aAjsIgC2w83DEUZ-12" value="首页（父）" style="rounded=0;whiteSpace=wrap;html=1;fillColor=#d5e8d4;strokeColor=#82b366;" parent="QluS-aAjsIgC2w83DEUZ-8" vertex="1">
          <mxGeometry x="40" y="250" width="90" height="40" as="geometry" />
        </mxCell>
        <mxCell id="QluS-aAjsIgC2w83DEUZ-24" value="&lt;span style=&quot;font-size: 11px; text-wrap-mode: nowrap; background-color: rgb(255, 255, 255);&quot;&gt;新建页面&lt;/span&gt;" style="rounded=0;whiteSpace=wrap;html=1;fillColor=#d5e8d4;strokeColor=#82b366;" parent="QluS-aAjsIgC2w83DEUZ-8" vertex="1">
          <mxGeometry x="70" y="540" width="80" height="40" as="geometry" />
        </mxCell>
        <mxCell id="QluS-aAjsIgC2w83DEUZ-30" value="写入token" style="rounded=0;whiteSpace=wrap;html=1;fillColor=#d5e8d4;strokeColor=#82b366;" parent="QluS-aAjsIgC2w83DEUZ-8" vertex="1">
          <mxGeometry x="129" y="120" width="90" height="40" as="geometry" />
        </mxCell>
        <mxCell id="QluS-aAjsIgC2w83DEUZ-38" value="cookie" style="strokeWidth=2;html=1;shape=mxgraph.flowchart.database;whiteSpace=wrap;" parent="QluS-aAjsIgC2w83DEUZ-8" vertex="1">
          <mxGeometry x="80" y="100" width="60" height="50" as="geometry" />
        </mxCell>
        <mxCell id="nYzu0JgBFqqFMGA5fvKE-4" style="edgeStyle=orthogonalEdgeStyle;rounded=0;orthogonalLoop=1;jettySize=auto;html=1;entryX=0.5;entryY=1;entryDx=0;entryDy=0;exitX=1;exitY=0.5;exitDx=0;exitDy=0;" parent="QluS-aAjsIgC2w83DEUZ-8" source="nYzu0JgBFqqFMGA5fvKE-3" target="QluS-aAjsIgC2w83DEUZ-30" edge="1">
          <mxGeometry relative="1" as="geometry" />
        </mxCell>
        <mxCell id="nYzu0JgBFqqFMGA5fvKE-3" value="获取用户信息" style="rounded=0;whiteSpace=wrap;html=1;fillColor=#d5e8d4;strokeColor=#82b366;" parent="QluS-aAjsIgC2w83DEUZ-8" vertex="1">
          <mxGeometry x="40" y="180" width="90" height="40" as="geometry" />
        </mxCell>
        <mxCell id="rp30ESvSIAJqpPpiR4pG-2" value="" style="swimlane;startSize=0;fillColor=#f8cecc;strokeColor=#b85450;" parent="QluS-aAjsIgC2w83DEUZ-8" vertex="1">
          <mxGeometry x="20" y="330" width="117.5" height="90" as="geometry">
            <mxRectangle x="68" y="320" width="50" height="40" as="alternateBounds" />
          </mxGeometry>
        </mxCell>
        <mxCell id="rp30ESvSIAJqpPpiR4pG-3" value="Token失效监听" style="text;html=1;align=center;verticalAlign=middle;resizable=0;points=[];autosize=1;strokeColor=none;fillColor=none;" parent="rp30ESvSIAJqpPpiR4pG-2" vertex="1">
          <mxGeometry x="15" width="100" height="30" as="geometry" />
        </mxCell>
        <mxCell id="rp30ESvSIAJqpPpiR4pG-5" value="Token刷新" style="rounded=0;whiteSpace=wrap;html=1;fillColor=#f8cecc;strokeColor=#b85450;" parent="rp30ESvSIAJqpPpiR4pG-2" vertex="1">
          <mxGeometry x="15" y="30" width="90" height="40" as="geometry" />
        </mxCell>
        <mxCell id="rp30ESvSIAJqpPpiR4pG-7" style="edgeStyle=orthogonalEdgeStyle;rounded=0;orthogonalLoop=1;jettySize=auto;html=1;entryX=0.5;entryY=1;entryDx=0;entryDy=0;" parent="QluS-aAjsIgC2w83DEUZ-8" source="rp30ESvSIAJqpPpiR4pG-3" target="QluS-aAjsIgC2w83DEUZ-12" edge="1">
          <mxGeometry relative="1" as="geometry" />
        </mxCell>
        <mxCell id="rp30ESvSIAJqpPpiR4pG-18" value="" style="swimlane;startSize=0;fillColor=#f8cecc;strokeColor=#b85450;" parent="QluS-aAjsIgC2w83DEUZ-8" vertex="1">
          <mxGeometry x="200" y="190" width="170" height="330" as="geometry">
            <mxRectangle x="68" y="320" width="50" height="40" as="alternateBounds" />
          </mxGeometry>
        </mxCell>
        <mxCell id="rp30ESvSIAJqpPpiR4pG-19" value="Token Reload" style="text;html=1;align=center;verticalAlign=middle;resizable=0;points=[];autosize=1;strokeColor=none;fillColor=none;" parent="rp30ESvSIAJqpPpiR4pG-18" vertex="1">
          <mxGeometry x="36.75" width="100" height="30" as="geometry" />
        </mxCell>
        <mxCell id="rp30ESvSIAJqpPpiR4pG-20" value="Token请求" style="rounded=0;whiteSpace=wrap;html=1;fillColor=#f8cecc;strokeColor=#b85450;" parent="rp30ESvSIAJqpPpiR4pG-18" vertex="1">
          <mxGeometry x="49.25" y="230" width="90" height="40" as="geometry" />
        </mxCell>
        <mxCell id="rp30ESvSIAJqpPpiR4pG-21" value="存在Token" style="strokeWidth=2;html=1;shape=mxgraph.flowchart.decision;whiteSpace=wrap;fillColor=#f8cecc;strokeColor=#b85450;" parent="rp30ESvSIAJqpPpiR4pG-18" vertex="1">
          <mxGeometry x="54.25" y="50" width="80" height="50" as="geometry" />
        </mxCell>
        <mxCell id="rp30ESvSIAJqpPpiR4pG-26" style="edgeStyle=orthogonalEdgeStyle;rounded=0;orthogonalLoop=1;jettySize=auto;html=1;" parent="rp30ESvSIAJqpPpiR4pG-18" source="rp30ESvSIAJqpPpiR4pG-24" target="rp30ESvSIAJqpPpiR4pG-20" edge="1">
          <mxGeometry relative="1" as="geometry" />
        </mxCell>
        <mxCell id="rp30ESvSIAJqpPpiR4pG-39" value="是" style="edgeLabel;html=1;align=center;verticalAlign=middle;resizable=0;points=[];" parent="rp30ESvSIAJqpPpiR4pG-26" vertex="1" connectable="0">
          <mxGeometry x="0.05" y="-1" relative="1" as="geometry">
            <mxPoint as="offset" />
          </mxGeometry>
        </mxCell>
        <mxCell id="rp30ESvSIAJqpPpiR4pG-24" value="Token过期" style="strokeWidth=2;html=1;shape=mxgraph.flowchart.decision;whiteSpace=wrap;fillColor=#f8cecc;strokeColor=#b85450;" parent="rp30ESvSIAJqpPpiR4pG-18" vertex="1">
          <mxGeometry x="54.25" y="140" width="80" height="50" as="geometry" />
        </mxCell>
        <mxCell id="rp30ESvSIAJqpPpiR4pG-25" style="edgeStyle=orthogonalEdgeStyle;rounded=0;orthogonalLoop=1;jettySize=auto;html=1;" parent="rp30ESvSIAJqpPpiR4pG-18" source="rp30ESvSIAJqpPpiR4pG-21" target="rp30ESvSIAJqpPpiR4pG-24" edge="1">
          <mxGeometry relative="1" as="geometry" />
        </mxCell>
        <mxCell id="rp30ESvSIAJqpPpiR4pG-36" value="是" style="edgeLabel;html=1;align=center;verticalAlign=middle;resizable=0;points=[];" parent="rp30ESvSIAJqpPpiR4pG-25" vertex="1" connectable="0">
          <mxGeometry x="-0.15" y="-1" relative="1" as="geometry">
            <mxPoint as="offset" />
          </mxGeometry>
        </mxCell>
        <mxCell id="rp30ESvSIAJqpPpiR4pG-37" style="edgeStyle=orthogonalEdgeStyle;rounded=0;orthogonalLoop=1;jettySize=auto;html=1;entryX=0;entryY=0.5;entryDx=0;entryDy=0;exitX=0;exitY=0.5;exitDx=0;exitDy=0;exitPerimeter=0;" parent="rp30ESvSIAJqpPpiR4pG-18" source="rp30ESvSIAJqpPpiR4pG-21" target="rp30ESvSIAJqpPpiR4pG-20" edge="1">
          <mxGeometry relative="1" as="geometry" />
        </mxCell>
        <mxCell id="rp30ESvSIAJqpPpiR4pG-38" value="否" style="edgeLabel;html=1;align=center;verticalAlign=middle;resizable=0;points=[];" parent="rp30ESvSIAJqpPpiR4pG-37" vertex="1" connectable="0">
          <mxGeometry x="-0.1078" y="-1" relative="1" as="geometry">
            <mxPoint as="offset" />
          </mxGeometry>
        </mxCell>
        <mxCell id="rp30ESvSIAJqpPpiR4pG-32" style="edgeStyle=orthogonalEdgeStyle;rounded=0;orthogonalLoop=1;jettySize=auto;html=1;entryX=0.5;entryY=1;entryDx=0;entryDy=0;" parent="QluS-aAjsIgC2w83DEUZ-8" source="rp30ESvSIAJqpPpiR4pG-27" target="rp30ESvSIAJqpPpiR4pG-18" edge="1">
          <mxGeometry relative="1" as="geometry" />
        </mxCell>
        <mxCell id="rp30ESvSIAJqpPpiR4pG-33" value="是" style="edgeLabel;html=1;align=center;verticalAlign=middle;resizable=0;points=[];" parent="rp30ESvSIAJqpPpiR4pG-32" vertex="1" connectable="0">
          <mxGeometry x="-0.0545" relative="1" as="geometry">
            <mxPoint as="offset" />
          </mxGeometry>
        </mxCell>
        <mxCell id="rp30ESvSIAJqpPpiR4pG-27" value="是否依赖Token" style="strokeWidth=2;html=1;shape=mxgraph.flowchart.decision;whiteSpace=wrap;" parent="QluS-aAjsIgC2w83DEUZ-8" vertex="1">
          <mxGeometry x="244.38" y="555" width="81.25" height="60" as="geometry" />
        </mxCell>
        <mxCell id="rp30ESvSIAJqpPpiR4pG-28" style="edgeStyle=orthogonalEdgeStyle;rounded=0;orthogonalLoop=1;jettySize=auto;html=1;entryX=0;entryY=0.5;entryDx=0;entryDy=0;entryPerimeter=0;" parent="QluS-aAjsIgC2w83DEUZ-8" source="QluS-aAjsIgC2w83DEUZ-24" target="rp30ESvSIAJqpPpiR4pG-27" edge="1">
          <mxGeometry relative="1" as="geometry" />
        </mxCell>
        <mxCell id="rp30ESvSIAJqpPpiR4pG-52" value="Token异常&lt;div&gt;消息监听&lt;/div&gt;" style="rounded=0;whiteSpace=wrap;html=1;fillColor=#f8cecc;strokeColor=#b85450;" parent="QluS-aAjsIgC2w83DEUZ-8" vertex="1">
          <mxGeometry x="240.01" y="678" width="90" height="40" as="geometry" />
        </mxCell>
        <mxCell id="rp30ESvSIAJqpPpiR4pG-53" style="edgeStyle=orthogonalEdgeStyle;rounded=0;orthogonalLoop=1;jettySize=auto;html=1;entryX=0.5;entryY=1;entryDx=0;entryDy=0;entryPerimeter=0;" parent="QluS-aAjsIgC2w83DEUZ-8" source="rp30ESvSIAJqpPpiR4pG-52" target="rp30ESvSIAJqpPpiR4pG-27" edge="1">
          <mxGeometry relative="1" as="geometry" />
        </mxCell>
        <mxCell id="rp30ESvSIAJqpPpiR4pG-54" value="&lt;span style=&quot;font-size: 11px; text-wrap-mode: nowrap; background-color: rgb(255, 255, 255);&quot;&gt;刷新页面&lt;/span&gt;" style="rounded=0;whiteSpace=wrap;html=1;fillColor=#d5e8d4;strokeColor=#82b366;" parent="QluS-aAjsIgC2w83DEUZ-8" vertex="1">
          <mxGeometry x="70" y="600" width="80" height="40" as="geometry" />
        </mxCell>
        <mxCell id="rp30ESvSIAJqpPpiR4pG-55" style="edgeStyle=orthogonalEdgeStyle;rounded=0;orthogonalLoop=1;jettySize=auto;html=1;entryX=0;entryY=0.5;entryDx=0;entryDy=0;entryPerimeter=0;" parent="QluS-aAjsIgC2w83DEUZ-8" source="rp30ESvSIAJqpPpiR4pG-54" target="rp30ESvSIAJqpPpiR4pG-27" edge="1">
          <mxGeometry relative="1" as="geometry" />
        </mxCell>
        <mxCell id="QluS-aAjsIgC2w83DEUZ-9" value="业务页面" style="swimlane;startSize=20;" parent="QluS-aAjsIgC2w83DEUZ-6" vertex="1">
          <mxGeometry x="620" width="150" height="770" as="geometry" />
        </mxCell>
        <mxCell id="QluS-aAjsIgC2w83DEUZ-61" value="渲染页面" style="rounded=0;whiteSpace=wrap;html=1;" parent="QluS-aAjsIgC2w83DEUZ-9" vertex="1">
          <mxGeometry x="40" y="420" width="90" height="40" as="geometry" />
        </mxCell>
        <mxCell id="KIUjc3lk86y1q8A7Fn4e-24" value="401错误" style="rounded=0;whiteSpace=wrap;html=1;fillColor=#fff2cc;strokeColor=#d6b656;" parent="QluS-aAjsIgC2w83DEUZ-9" vertex="1">
          <mxGeometry x="40" y="640" width="90" height="50" as="geometry" />
        </mxCell>
        <mxCell id="KIUjc3lk86y1q8A7Fn4e-28" style="edgeStyle=orthogonalEdgeStyle;rounded=0;orthogonalLoop=1;jettySize=auto;html=1;entryX=0.5;entryY=0;entryDx=0;entryDy=0;exitX=0.5;exitY=1;exitDx=0;exitDy=0;" parent="QluS-aAjsIgC2w83DEUZ-9" source="KIUjc3lk86y1q8A7Fn4e-26" target="KIUjc3lk86y1q8A7Fn4e-29" edge="1">
          <mxGeometry relative="1" as="geometry">
            <mxPoint x="171" y="750" as="targetPoint" />
          </mxGeometry>
        </mxCell>
        <mxCell id="KIUjc3lk86y1q8A7Fn4e-31" value="成功" style="edgeLabel;html=1;align=center;verticalAlign=middle;resizable=0;points=[];" parent="KIUjc3lk86y1q8A7Fn4e-28" vertex="1" connectable="0">
          <mxGeometry x="-0.3" y="1" relative="1" as="geometry">
            <mxPoint as="offset" />
          </mxGeometry>
        </mxCell>
        <mxCell id="KIUjc3lk86y1q8A7Fn4e-26" value="监听token处理结果消息" style="rounded=0;whiteSpace=wrap;html=1;fillColor=#fff2cc;strokeColor=#d6b656;" parent="QluS-aAjsIgC2w83DEUZ-9" vertex="1">
          <mxGeometry x="40" y="110" width="90" height="60" as="geometry" />
        </mxCell>
        <mxCell id="KIUjc3lk86y1q8A7Fn4e-29" value="重试请求" style="rounded=0;whiteSpace=wrap;html=1;fillColor=#fff2cc;strokeColor=#d6b656;" parent="QluS-aAjsIgC2w83DEUZ-9" vertex="1">
          <mxGeometry x="40" y="220" width="90" height="50" as="geometry" />
        </mxCell>
        <mxCell id="rp30ESvSIAJqpPpiR4pG-50" value="Token缺失" style="rounded=0;whiteSpace=wrap;html=1;fillColor=#fff2cc;strokeColor=#d6b656;" parent="QluS-aAjsIgC2w83DEUZ-9" vertex="1">
          <mxGeometry x="40" y="700" width="90" height="50" as="geometry" />
        </mxCell>
        <mxCell id="rp30ESvSIAJqpPpiR4pG-57" style="edgeStyle=orthogonalEdgeStyle;rounded=0;orthogonalLoop=1;jettySize=auto;html=1;entryX=1;entryY=0.5;entryDx=0;entryDy=0;" parent="QluS-aAjsIgC2w83DEUZ-6" source="KIUjc3lk86y1q8A7Fn4e-24" target="rp30ESvSIAJqpPpiR4pG-52" edge="1">
          <mxGeometry relative="1" as="geometry" />
        </mxCell>
        <mxCell id="rp30ESvSIAJqpPpiR4pG-58" style="edgeStyle=orthogonalEdgeStyle;rounded=0;orthogonalLoop=1;jettySize=auto;html=1;entryX=1;entryY=0.5;entryDx=0;entryDy=0;" parent="QluS-aAjsIgC2w83DEUZ-6" source="rp30ESvSIAJqpPpiR4pG-50" target="rp30ESvSIAJqpPpiR4pG-52" edge="1">
          <mxGeometry relative="1" as="geometry" />
        </mxCell>
      </root>
    </mxGraphModel>
  </diagram>
</mxfile>
